<?xml version="1.0" encoding="UTF-8" standalone="no"?>
<!-- Created with Inkscape (http://www.inkscape.org/) -->
<svg
   xmlns:dc="http://purl.org/dc/elements/1.1/"
   xmlns:cc="http://web.resource.org/cc/"
   xmlns:rdf="http://www.w3.org/1999/02/22-rdf-syntax-ns#"
   xmlns:svg="http://www.w3.org/2000/svg"
   xmlns="http://www.w3.org/2000/svg"
   xmlns:sodipodi="http://sodipodi.sourceforge.net/DTD/sodipodi-0.dtd"
   xmlns:inkscape="http://www.inkscape.org/namespaces/inkscape"
   width="743.7724"
   height="73.987457"
   id="svg1945"
   sodipodi:version="0.32"
   inkscape:version="0.44"
   version="1.0"
   sodipodi:docbase="C:\Programme\Inkscape"
   sodipodi:docname="Commerzbank-Logo.svg">
  <defs
     id="defs1947" />
  <sodipodi:namedview
     id="base"
     pagecolor="#ffffff"
     bordercolor="#666666"
     borderopacity="1.0"
     inkscape:pageopacity="0.0"
     inkscape:pageshadow="2"
     inkscape:zoom="0.35"
     inkscape:cx="350"
     inkscape:cy="310.29826"
     inkscape:document-units="px"
     inkscape:current-layer="layer1"
     inkscape:window-width="904"
     inkscape:window-height="574"
     inkscape:window-x="184"
     inkscape:window-y="184" />
  <metadata
     id="metadata1950">
    <rdf:RDF>
      <cc:Work
         rdf:about="">
        <dc:format>image/svg+xml</dc:format>
        <dc:type
           rdf:resource="http://purl.org/dc/dcmitype/StillImage" />
      </cc:Work>
    </rdf:RDF>
  </metadata>
  <g
     inkscape:label="Ebene 1"
     inkscape:groupmode="layer"
     id="layer1"
     transform="translate(160.4576,-569.6542)">
    <g
       id="g1989">
      <g
         id="g1969">
        <path
           id="path8"
           class="ps00"
           d="M -115.19736,634.8987 C -115.27811,634.53533 -121.73796,629.1252 -121.73796,629.1252 L -122.82807,630.74017 L -124.12004,632.3955 C -125.04864,633.56635 -128.11707,635.8273 -130.82213,636.51366 C -139.30069,638.57274 -147.33514,631.38615 -145.8413,616.9726 C -145.63943,615.39801 -144.50895,611.44135 -143.90334,610.02826 C -140.87528,603.44728 -133.08308,600.94409 -128.72268,603.81065 C -125.81575,605.70823 -124.56415,607.88843 -123.67592,609.74564 C -123.51442,610.06863 -117.21607,605.06224 -116.40858,604.69888 C -120.123,599.69249 -127.14809,597.0278 -130.70101,596.54331 C -148.58673,594.16124 -160.57784,605.7486 -160.45672,619.96028 C -160.33559,636.19067 -148.14262,646.04195 -130.0954,643.13501 C -127.14809,642.73127 -120.72861,641.15668 -115.19736,634.8987"
           style="fill:#221f1f;fill-rule:evenodd;stroke:none" />
        <path
           id="path10"
           class="ps00"
           d="M -94.768073,620.16215 C -95.33331,606.67721 -87.783355,599.97511 -79.950782,602.88204 C -75.509632,604.49701 -70.422496,611.40098 -72.562323,626.62201 C -73.490927,633.36448 -78.133947,637.52301 -83.665198,637.44226 C -89.236822,637.40189 -94.283583,632.31476 -94.768073,620.16215 z M -108.37414,619.79879 C -108.37414,636.15029 -95.010317,646.12269 -77.003473,642.40828 C -67.838555,640.5107 -61.903563,635.01982 -59.561866,627.51024 C -54.999594,612.4507 -63.195534,599.69249 -77.084221,596.90668 C -94.687324,593.39413 -108.37414,604.17401 -108.37414,619.79879"
           style="fill:#221f1f;fill-rule:evenodd;stroke:none" />
        <path
           id="path12"
           class="ps00"
           d="M 8.7914683,642.48903 C 8.3877274,642.08529 5.1578002,615.03465 2.3316139,597.43154 C 1.927873,597.43154 -6.5506859,597.43154 -6.9544268,597.43154 C -7.3581677,598.03715 -13.01054,609.74564 -17.532438,620.08141 L -19.995258,625.49153 L -22.5792,620.28328 C -27.02035,611.27985 -33.157211,598.56202 -33.843571,597.31042 C -34.166563,597.31042 -40.868662,597.31042 -42.685496,597.31042 C -42.846993,598.2794 -47.368891,627.51024 -49.791336,642.48903 C -49.306847,642.48903 -41.030159,642.48903 -40.586044,642.48903 C -40.505296,642.00454 -39.334447,627.67174 -38.486591,618.66831 C -36.750505,622.18086 -30.209903,636.06955 -26.899227,642.48903 C -26.091745,642.48903 -20.035632,642.48903 -19.551143,642.48903 C -19.308898,642.16603 -12.606799,628.07548 -8.1656495,618.91056 C -8.1656495,620.48515 -6.9544268,633.20299 -6.146945,642.48903 C -5.7432041,642.48903 8.3877274,642.48903 8.7914683,642.48903"
           style="fill:#221f1f;fill-rule:evenodd;stroke:none" />
        <path
           id="path14"
           class="ps00"
           d="M 77.427421,642.48903 C 77.427421,642.08529 73.793753,615.03465 71.371308,597.43154 C 70.967567,597.43154 62.085267,597.43154 61.681526,597.43154 C 61.681526,598.03715 56.029154,609.74564 51.184263,620.08141 L 48.761817,625.49153 L 46.339372,620.28328 C 41.898222,611.27985 35.438368,598.56202 35.034627,597.31042 C 34.630886,597.31042 27.767291,597.31042 26.152327,597.31042 C 26.152327,598.2794 21.307436,627.51024 18.884991,642.48903 C 19.692473,642.48903 27.767291,642.48903 28.171032,642.48903 C 28.171032,642.00454 29.382254,627.67174 30.189736,618.66831 C 32.208441,622.18086 38.668295,636.06955 41.898222,642.48903 C 42.705704,642.48903 48.761817,642.48903 49.165558,642.48903 C 49.569299,642.16603 56.029154,628.07548 60.470304,618.91056 C 60.470304,620.48515 62.085267,633.20299 62.892749,642.48903 C 63.29649,642.48903 77.02368,642.48903 77.427421,642.48903"
           style="fill:#221f1f;fill-rule:evenodd;stroke:none" />
        <path
           id="path16"
           class="ps00"
           d="M 107.30425,604.82 C 107.30425,604.82 117.39777,605.26412 124.26137,605.50636 C 123.85762,603.24541 124.26137,599.73286 124.26137,597.35079 C 120.6277,597.35079 99.633171,597.43154 91.962094,597.35079 C 91.962094,598.96576 91.962094,602.43793 91.962094,603.7299 C 91.962094,604.61813 91.962094,638.20937 91.962094,642.48903 C 91.962094,642.48903 116.59029,642.40828 124.26137,642.48903 C 123.85762,640.06658 124.26137,637.44226 124.26137,635.06019 C 120.6277,635.34281 113.7641,635.46393 106.90051,635.62543 L 105.68928,635.62543 C 105.68928,635.62543 105.68928,627.67174 105.68928,622.4231 L 107.30425,622.46348 C 107.30425,622.46348 116.99403,622.86722 123.45388,623.23059 C 123.45388,622.62497 123.45388,620.80814 123.45388,620.16215 C 123.45388,618.46644 123.45388,616.89185 123.45388,615.27689 C 119.82022,615.35764 113.7641,615.51913 107.30425,615.51913 L 105.68928,615.51913 C 105.68928,615.51913 105.68928,608.93816 105.68928,604.82 L 107.30425,604.82"
           style="fill:#221f1f;fill-rule:evenodd;stroke:none" />
        <path
           id="path18"
           class="ps00"
           d="M 139.19978,597.43154 C 139.19978,597.99678 138.79604,641.76229 138.79604,642.48903 C 140.00726,642.48903 151.31201,642.48903 152.52323,642.48903 C 152.52323,641.64117 152.52323,626.82388 152.52323,626.82388 L 152.52323,624.11882 C 152.52323,624.28031 153.73445,623.99769 154.13819,624.44181 C 154.54193,624.9263 161.80927,638.29012 163.42423,642.48903 C 164.63546,642.48903 177.95891,642.48903 179.17013,642.48903 C 178.76639,642.00454 167.0579,621.4945 167.0579,621.4945 L 168.26912,621.09076 C 169.07661,620.72739 169.88409,620.2429 170.28783,619.83916 C 171.09531,619.39505 171.90279,618.66831 172.71027,618.10308 C 177.95891,613.01594 176.74768,603.60878 170.28783,599.3695 C 167.46164,597.22967 153.73445,597.43154 152.11949,597.43154 C 150.50452,597.43154 139.60352,597.43154 139.19978,597.43154 z M 152.52323,617.69933 L 152.52323,603.44728 C 152.52323,603.36653 153.73445,603.36653 154.13819,603.36653 C 158.57934,603.44728 162.21301,604.73925 161.80927,610.31088 C 161.80927,616.64961 158.1756,617.78008 154.13819,617.78008 L 152.92697,617.78008 L 152.52323,617.69933"
           style="fill:#221f1f;fill-rule:evenodd;stroke:none" />
        <path
           id="path20"
           class="ps00"
           d="M 225.60033,597.35079 C 222.77415,597.43154 192.08984,597.35079 190.07113,597.35079 C 190.07113,599.28875 190.07113,601.99381 190.07113,604.9815 C 190.87861,604.9815 201.37588,604.49701 207.83573,604.49701 C 203.39458,612.20846 192.49358,630.25568 188.05243,637.32114 C 188.05243,637.32114 188.05243,642.08529 188.05243,642.48903 C 192.08984,642.48903 220.75544,642.5294 226.00407,642.48903 C 226.00407,639.54172 226.00407,636.06955 226.00407,634.81795 C 217.92925,634.8987 210.25818,635.38319 205.41329,635.38319 C 209.85444,627.67174 222.77415,606.63683 225.60033,602.43793 C 225.60033,602.43793 225.60033,598.60239 225.60033,597.35079"
           style="fill:#221f1f;fill-rule:evenodd;stroke:none" />
        <path
           id="path22"
           class="ps00"
           d="M 237.71256,597.35079 C 237.71256,599.49062 237.71256,641.52005 237.71256,642.40828 C 238.1163,642.48903 254.26594,642.40828 254.26594,642.40828 C 267.58939,642.40828 273.24176,640.95481 275.26046,633.6471 C 277.27917,626.13752 274.04924,620.48515 267.58939,618.34532 C 267.18564,618.10308 266.37816,618.10308 265.97442,618.10308 C 266.37816,617.98195 267.18564,617.98195 267.58939,617.65896 C 272.43428,615.19614 275.6642,610.71462 273.6455,604.57776 C 270.81931,596.74518 262.74449,597.31042 251.03601,597.35079 C 250.22853,597.35079 239.32752,597.35079 237.71256,597.35079 z M 251.03601,621.77712 L 255.07342,621.77712 C 258.30334,621.77712 261.53327,624.23994 261.53327,629.48857 C 261.53327,635.74655 257.09212,637.03852 252.24723,636.87703 C 251.84349,636.87703 251.43975,637.03852 251.03601,636.95778 L 251.03601,621.77712 z M 251.03601,615.51913 L 251.03601,602.8013 C 251.03601,602.8013 251.43975,602.76092 251.84349,602.76092 C 259.11083,602.55905 261.53327,605.06224 260.72579,610.47237 C 259.91831,614.75203 255.47716,615.59988 251.43975,615.59988 C 251.43975,615.59988 251.03601,615.51913 251.03601,615.51913"
           style="fill:#221f1f;fill-rule:evenodd;stroke:none" />
        <path
           id="path24"
           class="ps00"
           d="M 307.55973,624.28031 C 306.75225,624.28031 299.08118,624.28031 298.27369,624.28031 L 303.11858,610.39162 L 307.55973,624.28031 z M 300.2924,597.43154 L 281.72032,642.48903 C 283.33528,642.48903 290.19888,642.48903 291.81384,642.48903 L 296.25499,630.74017 C 300.69614,630.69979 304.73355,630.82091 309.1747,630.74017 C 309.57844,632.31476 313.21211,642.48903 313.21211,642.48903 L 328.55426,642.48903 L 312.00088,597.43154 C 310.78966,597.35079 301.50362,597.47192 300.2924,597.43154"
           style="fill:#221f1f;fill-rule:evenodd;stroke:none" />
        <path
           id="path26"
           class="ps00"
           d="M 380.63684,642.48903 C 380.63684,641.88341 380.63684,598.92538 380.63684,597.35079 C 380.2331,597.35079 372.15828,597.35079 371.75454,597.35079 C 371.75454,597.87566 371.75454,597.55266 371.75454,597.67379 L 372.15828,623.47283 C 372.15828,623.47283 358.02735,607.56544 349.14505,597.35079 C 348.74131,597.35079 339.85901,597.43154 339.05152,597.35079 C 339.45527,598.84463 339.05152,633.08186 339.05152,634.65645 C 339.05152,637.28077 339.05152,641.23743 339.05152,642.48903 C 339.85901,642.48903 346.31886,642.48903 347.53008,642.48903 C 347.53008,634.13159 347.53008,620.84851 347.53008,620.84851 L 347.12634,616.9726 L 350.35627,620.16215 L 355.6049,626.37976 C 360.04605,631.34578 369.73583,641.84304 370.13957,642.48903 C 370.94706,642.48903 379.82936,642.48903 380.63684,642.48903"
           style="fill:#221f1f;fill-rule:evenodd;stroke:none" />
        <path
           id="path28"
           class="ps00"
           d="M 394.36403,597.43154 C 394.36403,598.2794 394.36403,602.88204 394.36403,604.01252 C 394.36403,604.86037 394.36403,639.78396 394.36403,642.48903 C 394.76777,642.40828 396.38273,642.48903 397.59396,642.48903 C 398.80518,642.48903 404.45755,642.48903 407.68748,642.48903 C 407.68748,640.14733 407.68748,631.10353 407.68748,626.62201 L 407.68748,624.68405 L 407.68748,622.66535 C 410.9174,627.55061 415.35855,634.69683 418.58848,639.78396 C 418.99222,640.63182 419.39596,641.6008 419.7997,642.48903 C 423.83711,642.48903 433.12315,642.48903 436.35308,642.48903 C 434.73812,640.14733 428.682,630.61904 424.6446,624.11882 C 423.02963,621.37338 420.60719,617.53784 418.58848,614.75203 C 423.02963,609.1804 428.27826,603.8914 430.29697,601.5497 C 431.10445,600.62109 432.71941,598.23902 433.5269,597.35079 C 432.71941,597.43154 428.27826,597.35079 426.6633,597.35079 C 424.6446,597.35079 424.24085,597.35079 422.22215,597.35079 C 421.41467,598.92538 413.33985,609.38227 408.09122,615.27689 C 408.09122,613.50043 408.09122,611.76434 408.09122,610.02826 C 408.09122,605.50636 408.09122,598.96576 408.09122,597.35079 C 406.88,597.43154 403.24633,597.43154 400.82388,597.43154 C 398.80518,597.43154 394.76777,597.43154 394.36403,597.43154"
           style="fill:#221f1f;fill-rule:evenodd;stroke:none" />
      </g>
      <g
         id="g1982">
        <path
           id="path30"
           class="ps01"
           d="M 490.45436,629.93268 C 489.24314,629.81156 467.44113,628.1966 467.44113,628.1966 L 463.40372,642.5294 C 463.40372,642.5294 496.91422,642.65052 499.7404,642.48903 C 509.02644,642.44865 509.43018,634.81795 509.43018,634.17196 C 509.43018,631.50727 508.21896,629.32707 507.00774,627.87361 L 476.72717,597.14892 L 472.28602,611.96621 L 490.8581,628.96371 C 491.26184,629.08483 491.26184,629.24632 491.26184,629.4482 C 491.26184,629.77119 490.8581,629.97306 490.45436,629.93268"
           style="fill:#fec10c;fill-rule:nonzero;stroke:none" />
        <path
           id="path32"
           class="ps01"
           d="M 513.06385,633.00112 C 513.06385,627.22762 517.505,622.50385 523.56112,622.50385 C 529.21349,622.50385 534.05838,627.22762 534.05838,633.00112 C 534.05838,638.85536 529.21349,643.53875 523.56112,643.53875 C 517.505,643.53875 513.06385,638.85536 513.06385,633.00112"
           style="fill:#fec10c;fill-rule:nonzero;stroke:none" />
        <path
           id="path34"
           class="ps01"
           d="M 507.81522,577.44637 L 508.21896,602.35718 C 508.21896,602.35718 508.21896,603.16466 508.21896,603.28578 C 507.81522,603.40691 507.00774,602.76092 507.00774,602.76092 C 505.39278,600.4596 494.08803,587.25727 492.87681,585.64231 L 479.55336,592.95002 L 504.98903,618.14345 C 504.98903,618.14345 508.6227,621.81749 512.25637,621.81749 C 517.10126,621.77712 521.13867,618.2242 521.13867,611.72397 L 520.73493,569.65417 L 507.81522,577.44637"
           style="fill:#fec10c;fill-rule:nonzero;stroke:none" />
        <path
           id="path36"
           class="ps01"
           d="M 539.30701,577.44637 L 538.49953,602.35718 C 538.49953,602.35718 538.49953,603.16466 538.90327,603.28578 C 539.30701,603.40691 540.11449,602.76092 540.11449,602.76092 C 541.72946,600.4596 553.0342,587.25727 554.24542,585.64231 L 567.56887,592.95002 L 542.1332,618.14345 C 542.1332,618.14345 538.49953,621.81749 534.86586,621.81749 C 530.02097,621.77712 525.98356,618.2242 525.98356,611.72397 L 526.3873,569.65417 L 539.30701,577.44637"
           style="fill:#fec10c;fill-rule:nonzero;stroke:none" />
        <path
           id="path38"
           class="ps01"
           d="M 556.26413,629.93268 C 557.87909,629.81156 579.27736,628.1966 579.27736,628.1966 L 583.31477,642.5294 C 583.31477,642.5294 549.80427,642.65052 546.97809,642.48903 C 537.69205,642.44865 537.69205,634.81795 537.69205,634.17196 C 537.69205,631.50727 538.49953,629.32707 539.71075,627.87361 L 570.39506,597.14892 L 574.43247,611.96621 L 555.86039,628.96371 C 555.86039,629.08483 555.86039,629.24632 555.86039,629.4482 C 555.86039,629.77119 556.26413,629.97306 556.26413,629.93268"
           style="fill:#fec10c;fill-rule:nonzero;stroke:none" />
      </g>
    </g>
  </g>
</svg>
